<svg xmlns="http://www.w3.org/2000/svg" viewBox="0 -0.5 23 18" shape-rendering="crispEdges">
<metadata>Made with Pixels to Svg https://codepen.io/shshaw/pen/XbxvNj</metadata>
<path stroke="#326d62" d="M14 0h1M9 4h1" />
<path stroke="#336e64" d="M15 0h1M1 2h1" />
<path stroke="#306c63" d="M16 0h1M22 4h1M4 7h1" />
<path stroke="#306e65" d="M17 0h1M10 17h1" />
<path stroke="#336f64" d="M18 0h1M19 1h1M20 2h1M20 3h1" />
<path stroke="#306b61" d="M2 1h1" />
<path stroke="#326f64" d="M13 1h1M19 9h1M19 13h1M17 15h1" />
<path stroke="#fbeea2" d="M14 1h1" />
<path stroke="#fbefa0" d="M15 1h1" />
<path stroke="#f8ec95" d="M16 1h1" />
<path stroke="#f8e992" d="M17 1h1M6 10h1" />
<path stroke="#faeb94" d="M18 1h1M7 5h1M7 9h1M15 12h1" />
<path stroke="#f1c545" d="M2 2h1" />
<path stroke="#326d63" d="M3 2h1M12 15h1" />
<path stroke="#337063" d="M12 2h1" />
<path stroke="#fdeea1" d="M13 2h1" />
<path stroke="#fcf0a0" d="M14 2h1" />
<path stroke="#fbefa1" d="M15 2h1" />
<path stroke="#fcee9d" d="M16 2h1" />
<path stroke="#f5e589" d="M17 2h1" />
<path stroke="#fbeb97" d="M18 2h1" />
<path stroke="#faee9a" d="M19 2h1" />
<path stroke="#306c62" d="M0 3h1" />
<path stroke="#f2c546" d="M1 3h1" />
<path stroke="#f0c243" d="M2 3h1M2 4h1" />
<path stroke="#eebd40" d="M3 3h1" />
<path stroke="#316d63" d="M4 3h1M20 4h1M21 7h1" />
<path stroke="#326d61" d="M11 3h1" />
<path stroke="#336e65" d="M12 3h1" />
<path stroke="#2f6c61" d="M13 3h1" />
<path stroke="#fcf1a3" d="M14 3h1" />
<path stroke="#6ab5a9" d="M15 3h1" />
<path stroke="#69b2a4" d="M16 3h1" />
<path stroke="#6db2a7" d="M17 3h1" />
<path stroke="#f9e891" d="M18 3h1" />
<path stroke="#69b1a6" d="M19 3h1" />
<path stroke="#316c61" d="M21 3h1M13 7h1" />
<path stroke="#306c61" d="M1 4h1M12 7h1" />
<path stroke="#326e64" d="M3 4h1M11 17h1" />
<path stroke="#316e63" d="M7 4h1M20 8h1M13 17h1M17 17h1" />
<path stroke="#316f63" d="M8 4h1M6 16h1M6 17h1" />
<path stroke="#316e64" d="M10 4h1M14 4h1" />
<path stroke="#f1c445" d="M11 4h1" />
<path stroke="#f2c446" d="M12 4h1" />
<path stroke="#346f64" d="M13 4h1" />
<path stroke="#6cb7a8" d="M15 4h1" />
<path stroke="#6ab3a8" d="M16 4h1" />
<path stroke="#6bb4a7" d="M17 4h1" />
<path stroke="#6ab3a6" d="M18 4h1" />
<path stroke="#6ab2a7" d="M19 4h1" />
<path stroke="#f1c345" d="M21 4h1" />
<path stroke="#2e6961" d="M2 5h1" />
<path stroke="#2d655e" d="M3 5h1" />
<path stroke="#326e62" d="M6 5h1" />
<path stroke="#faef9b" d="M8 5h1" />
<path stroke="#fcef9d" d="M9 5h1" />
<path stroke="#316c62" d="M10 5h1M8 17h1" />
<path stroke="#316e62" d="M11 5h1M22 6h1M11 16h1" />
<path stroke="#eec043" d="M12 5h1" />
<path stroke="#326e63" d="M13 5h1M14 8h1M16 9h1" />
<path stroke="#306d62" d="M14 5h1M14 17h1M16 17h1" />
<path stroke="#6ab3a7" d="M15 5h1M18 5h1" />
<path stroke="#295857" d="M16 5h1" />
<path stroke="#6db4a8" d="M17 5h1" />
<path stroke="#2a5a58" d="M19 5h1" />
<path stroke="#316e65" d="M20 5h1" />
<path stroke="#eabb41" d="M21 5h1" />
<path stroke="#337064" d="M22 5h1M15 15h1" />
<path stroke="#306862" d="M2 6h1" />
<path stroke="#569d96" d="M3 6h1" />
<path stroke="#346e63" d="M5 6h1" />
<path stroke="#f8eb91" d="M6 6h1M11 13h1" />
<path stroke="#fcef95" d="M7 6h1" />
<path stroke="#faea93" d="M8 6h1M7 12h1" />
<path stroke="#fbed98" d="M9 6h1" />
<path stroke="#2f6b62" d="M10 6h1" />
<path stroke="#e4b43d" d="M11 6h1" />
<path stroke="#e3b33b" d="M12 6h1" />
<path stroke="#2f6b61" d="M13 6h1" />
<path stroke="#2e6a62" d="M14 6h1" />
<path stroke="#68afa6" d="M15 6h1" />
<path stroke="#2a5c59" d="M16 6h1" />
<path stroke="#6bb2a6" d="M17 6h1" />
<path stroke="#6bb3a5" d="M18 6h1" />
<path stroke="#2d5f59" d="M19 6h1" />
<path stroke="#316c63" d="M20 6h1M5 13h1" />
<path stroke="#e5b13c" d="M21 6h1" />
<path stroke="#2e605b" d="M2 7h1" />
<path stroke="#2d5f5a" d="M3 7h1" />
<path stroke="#fbeb93" d="M5 7h1M4 9h1" />
<path stroke="#faeb91" d="M6 7h1" />
<path stroke="#fbec97" d="M7 7h1M11 8h1M14 11h1" />
<path stroke="#faed99" d="M8 7h1" />
<path stroke="#fced98" d="M9 7h1" />
<path stroke="#f9ee9a" d="M10 7h1" />
<path stroke="#306e63" d="M11 7h1" />
<path stroke="#5ca59b" d="M14 7h1" />
<path stroke="#66b1a5" d="M15 7h1" />
<path stroke="#6db5a9" d="M16 7h1" />
<path stroke="#6bb1a5" d="M17 7h1" />
<path stroke="#61ab9e" d="M18 7h1" />
<path stroke="#68aea1" d="M19 7h1" />
<path stroke="#2f6d62" d="M20 7h1" />
<path stroke="#59a199" d="M3 8h1" />
<path stroke="#337066" d="M4 8h1" />
<path stroke="#f9e98f" d="M5 8h1" />
<path stroke="#f9eb8d" d="M6 8h1" />
<path stroke="#f8e88e" d="M7 8h1" />
<path stroke="#f9eb92" d="M8 8h1" />
<path stroke="#faec97" d="M9 8h1M12 10h1" />
<path stroke="#fcee98" d="M10 8h1" />
<path stroke="#f8e88d" d="M12 8h1M12 11h1" />
<path stroke="#f8e68c" d="M13 8h1" />
<path stroke="#60a9a0" d="M15 8h1" />
<path stroke="#67afa3" d="M16 8h1" />
<path stroke="#65ada2" d="M17 8h1" />
<path stroke="#62a9a0" d="M18 8h1" />
<path stroke="#61a99f" d="M19 8h1" />
<path stroke="#336b62" d="M3 9h1" />
<path stroke="#f8e78b" d="M5 9h1" />
<path stroke="#f9e98b" d="M6 9h1" />
<path stroke="#f9ea93" d="M8 9h1" />
<path stroke="#faec99" d="M9 9h1" />
<path stroke="#fceb94" d="M10 9h1" />
<path stroke="#f9ea92" d="M11 9h1" />
<path stroke="#fbeb98" d="M12 9h1" />
<path stroke="#f6e283" d="M13 9h1M15 11h1" />
<path stroke="#f6e081" d="M14 9h1" />
<path stroke="#336e60" d="M15 9h1" />
<path stroke="#306d63" d="M17 9h1" />
<path stroke="#327065" d="M18 9h1" />
<path stroke="#327063" d="M20 9h1" />
<path stroke="#2f6960" d="M4 10h1" />
<path stroke="#faec93" d="M5 10h1M9 11h1" />
<path stroke="#fbec94" d="M7 10h1" />
<path stroke="#f9eb95" d="M8 10h1" />
<path stroke="#fae991" d="M9 10h1" />
<path stroke="#fbef9a" d="M10 10h1" />
<path stroke="#f8ea96" d="M11 10h1" />
<path stroke="#f8ec99" d="M13 10h1" />
<path stroke="#f7e585" d="M14 10h1M6 12h1" />
<path stroke="#f5e082" d="M15 10h1" />
<path stroke="#f8e386" d="M16 10h1" />
<path stroke="#f4de7d" d="M17 10h1" />
<path stroke="#f4e07e" d="M18 10h1" />
<path stroke="#f6e184" d="M19 10h1" />
<path stroke="#2f6b60" d="M20 10h1M8 14h1" />
<path stroke="#2f6d60" d="M4 11h1" />
<path stroke="#f6e582" d="M5 11h1" />
<path stroke="#f8e890" d="M6 11h1" />
<path stroke="#faec94" d="M7 11h1" />
<path stroke="#fae990" d="M8 11h1" />
<path stroke="#faeb90" d="M10 11h1" />
<path stroke="#fbee9c" d="M11 11h1" />
<path stroke="#fbea95" d="M13 11h1" />
<path stroke="#f8eb93" d="M16 11h1" />
<path stroke="#f9e88f" d="M17 11h1M14 13h1" />
<path stroke="#f6e381" d="M18 11h1M17 12h1" />
<path stroke="#fae893" d="M19 11h1" />
<path stroke="#357266" d="M20 11h1" />
<path stroke="#346f65" d="M4 12h1" />
<path stroke="#f5e283" d="M5 12h1" />
<path stroke="#f8e991" d="M8 12h1" />
<path stroke="#faec95" d="M9 12h1" />
<path stroke="#f7e88f" d="M10 12h1" />
<path stroke="#f9ed96" d="M11 12h1" />
<path stroke="#f9e78b" d="M12 12h1" />
<path stroke="#f9e890" d="M13 12h1" />
<path stroke="#faeb95" d="M14 12h1" />
<path stroke="#faea92" d="M16 12h1" />
<path stroke="#faed97" d="M18 12h1" />
<path stroke="#357164" d="M19 12h1" />
<path stroke="#f4e181" d="M6 13h1" />
<path stroke="#f5e07d" d="M7 13h1" />
<path stroke="#f5e181" d="M8 13h1M10 14h1" />
<path stroke="#f6e180" d="M9 13h1" />
<path stroke="#f7e587" d="M10 13h1" />
<path stroke="#f4e07d" d="M12 13h1" />
<path stroke="#f4df7f" d="M13 13h1" />
<path stroke="#faea8e" d="M15 13h1" />
<path stroke="#f4df7d" d="M16 13h1" />
<path stroke="#f6e280" d="M17 13h1" />
<path stroke="#f8e484" d="M18 13h1" />
<path stroke="#2f6c62" d="M6 14h1" />
<path stroke="#5da59b" d="M7 14h1" />
<path stroke="#f5de7e" d="M9 14h1" />
<path stroke="#f8e382" d="M11 14h1" />
<path stroke="#f4e17e" d="M12 14h1" />
<path stroke="#326b63" d="M13 14h1" />
<path stroke="#f6e385" d="M14 14h1" />
<path stroke="#f7e484" d="M15 14h1" />
<path stroke="#f9e586" d="M16 14h1" />
<path stroke="#f5e381" d="M17 14h1" />
<path stroke="#316b62" d="M18 14h1" />
<path stroke="#316d64" d="M6 15h1" />
<path stroke="#63aea0" d="M7 15h1" />
<path stroke="#316f64" d="M8 15h1" />
<path stroke="#326c65" d="M9 15h1" />
<path stroke="#62aa9f" d="M10 15h1" />
<path stroke="#306f63" d="M11 15h1" />
<path stroke="#62a89f" d="M13 15h1" />
<path stroke="#347063" d="M14 15h1" />
<path stroke="#60a99e" d="M16 15h1" />
<path stroke="#65ada1" d="M7 16h1" />
<path stroke="#326c64" d="M8 16h1" />
<path stroke="#64aca2" d="M10 16h1" />
<path stroke="#66afa6" d="M13 16h1" />
<path stroke="#327066" d="M14 16h1" />
<path stroke="#69b2a5" d="M16 16h1" />
<path stroke="#326f63" d="M17 16h1" />
<path stroke="#306f65" d="M7 17h1" />
</svg>