<svg xmlns="http://www.w3.org/2000/svg" viewBox="0 -0.5 20 13" shape-rendering="crispEdges">
<metadata>Made with Pixels to Svg https://codepen.io/shshaw/pen/XbxvNj</metadata>
<path stroke="#fcf3bd" d="M13 0h3M12 1h5M12 2h1M16 2h1M5 3h4M4 4h6M4 5h8M4 6h9M4 7h12M4 8h12M4 9h12M5 10h1M7 10h4M12 10h3" />
<path stroke="#e6ac00" d="M1 1h1M0 2h3M10 2h1M18 2h1M1 3h1M10 3h1M18 3h1M10 4h1M18 4h1M3 5h1M3 6h1" />
<path stroke="#101010" d="M11 2h1M17 2h1M2 3h1M9 3h1M11 3h1M17 3h1M19 3h1M1 4h2M11 4h1M13 4h1M15 4h1M17 4h1M2 5h1" />
<path stroke="#4ab4e6" d="M13 2h3M12 3h1M14 3h1M16 3h1M12 4h1M14 4h1M16 4h1M12 5h5M13 6h3M6 10h1M11 10h1M6 11h1M8 11h1M11 11h1M13 11h1M6 12h1M8 12h1M11 12h1M13 12h1" />
<path stroke="#ffffff" d="M13 3h1M15 3h1" />
</svg>