<svg xmlns="http://www.w3.org/2000/svg" viewBox="0 -0.5 69 54" shape-rendering="crispEdges">
<metadata>Made with Pixels to Svg https://codepen.io/shshaw/pen/XbxvNj</metadata>
<path stroke="#326e63" d="M42 0h15M42 1h15M42 2h15M6 3h3M39 3h3M57 3h3M6 4h3M39 4h3M57 4h3M6 5h3M39 5h3M57 5h3M3 6h3M9 6h3M36 6h3M60 6h3M3 7h3M9 7h3M36 7h3M60 7h3M3 8h3M9 8h3M36 8h3M60 8h3M0 9h3M12 9h3M33 9h9M60 9h6M0 10h3M12 10h3M33 10h9M60 10h6M0 11h3M12 11h3M33 11h9M60 11h6M3 12h3M9 12h3M21 12h12M39 12h6M60 12h3M66 12h3M3 13h3M9 13h3M21 13h12M39 13h6M60 13h3M66 13h3M3 14h3M9 14h3M21 14h12M39 14h6M60 14h3M66 14h3M6 15h3M18 15h3M30 15h6M39 15h6M60 15h3M66 15h3M6 16h3M18 16h3M30 16h6M39 16h6M60 16h3M66 16h3M6 17h3M18 17h3M30 17h6M39 17h6M60 17h3M66 17h3M6 18h3M15 18h3M30 18h3M39 18h6M60 18h3M66 18h3M6 19h3M15 19h3M30 19h3M39 19h6M60 19h3M66 19h3M6 20h3M15 20h3M30 20h3M39 20h6M60 20h3M66 20h3M12 21h3M33 21h9M60 21h6M12 22h3M33 22h9M60 22h6M12 23h3M33 23h9M60 23h6M12 24h3M42 24h3M60 24h3M12 25h3M42 25h3M60 25h3M12 26h3M42 26h3M60 26h3M9 27h3M45 27h18M9 28h3M45 28h18M9 29h3M45 29h18M12 30h3M60 30h3M12 31h3M60 31h3M12 32h3M60 32h3M12 33h3M60 33h3M12 34h3M60 34h3M12 35h3M60 35h3M12 36h3M57 36h3M12 37h3M57 37h3M12 38h3M57 38h3M15 39h3M57 39h3M15 40h3M57 40h3M15 41h3M57 41h3M18 42h3M24 42h3M39 42h3M54 42h3M18 43h3M24 43h3M39 43h3M54 43h3M18 44h3M24 44h3M39 44h3M54 44h3M18 45h3M24 45h6M33 45h6M42 45h6M51 45h3M18 46h3M24 46h6M33 46h6M42 46h6M51 46h3M18 47h3M24 47h6M33 47h6M42 47h6M51 47h3M18 48h3M24 48h3M33 48h3M42 48h3M51 48h3M18 49h3M24 49h3M33 49h3M42 49h3M51 49h3M18 50h3M24 50h3M33 50h3M42 50h3M51 50h3M18 51h9M30 51h6M39 51h6M48 51h6M18 52h9M30 52h6M39 52h6M48 52h6M18 53h9M30 53h6M39 53h6M48 53h6" />
<path stroke="#faec97" d="M42 3h15M42 4h15M42 5h15M39 6h12M54 6h6M39 7h12M54 7h6M39 8h12M54 8h6M42 9h3M54 9h3M42 10h3M54 10h3M42 11h3M54 11h3M21 15h9M21 16h9M21 17h9M21 18h9M21 19h9M21 20h9M15 21h3M21 21h12M15 22h3M21 22h12M15 23h3M21 23h12M24 24h12M24 25h12M24 26h12M12 27h3M21 27h18M12 28h3M21 28h18M12 29h3M21 29h18M15 30h27M15 31h27M15 32h27M18 33h6M27 33h3M33 33h3M39 33h6M48 33h3M57 33h3M18 34h6M27 34h3M33 34h3M39 34h6M48 34h3M57 34h3M18 35h6M27 35h3M33 35h3M39 35h6M48 35h3M57 35h3M21 36h9M33 36h3M39 36h12M54 36h3M21 37h9M33 37h3M39 37h12M54 37h3M21 38h9M33 38h3M39 38h12M54 38h3" />
<path stroke="#edbe42" d="M6 6h3M6 7h3M6 8h3M3 9h9M3 10h9M3 11h9M6 12h3M33 12h6M63 12h3M6 13h3M33 13h6M63 13h3M6 14h3M33 14h6M63 14h3M36 15h3M63 15h3M36 16h3M63 16h3M36 17h3M63 17h3M33 18h6M63 18h3M33 19h6M63 19h3M33 20h6M63 20h3" />
<path stroke="#f8e78b" d="M51 6h3M51 7h3M51 8h3M18 18h3M18 19h3M18 20h3M18 21h3M18 22h3M18 23h3M15 24h9M36 24h6M15 25h9M36 25h6M15 26h9M36 26h6M15 27h6M15 28h6M15 29h6M42 30h3M48 30h3M57 30h3M42 31h3M48 31h3M57 31h3M42 32h3M48 32h3M57 32h3M24 33h3M30 33h3M36 33h3M51 33h3M24 34h3M30 34h3M36 34h3M51 34h3M24 35h3M30 35h3M36 35h3M51 35h3M18 36h3M30 36h3M36 36h3M18 37h3M30 37h3M36 37h3M18 38h3M30 38h3M36 38h3M30 39h6M42 39h6M30 40h6M42 40h6M30 41h6M42 41h6M48 42h3M48 43h3M48 44h3" />
<path stroke="#69b1a5" d="M45 9h9M57 9h3M45 10h9M57 10h3M45 11h9M57 11h3M45 12h15M45 13h15M45 14h15M45 15h3M51 15h6M45 16h3M51 16h6M45 17h3M51 17h6M45 18h3M51 18h6M45 19h3M51 19h6M45 20h3M51 20h6M45 21h15M45 22h15M45 23h15M48 24h6M48 25h6M48 26h6M21 45h3M21 46h3M21 47h3M21 48h3M30 48h3M39 48h3M48 48h3M21 49h3M30 49h3M39 49h3M48 49h3M21 50h3M30 50h3M39 50h3M48 50h3" />
<path stroke="#2c5e5a" d="M9 15h3M48 15h3M57 15h3M9 16h3M48 16h3M57 16h3M9 17h3M48 17h3M57 17h3M48 18h3M57 18h3M48 19h3M57 19h3M48 20h3M57 20h3M6 21h6M6 22h6M6 23h6" />
<path stroke="#5fa69d" d="M9 18h3M9 19h3M9 20h3M42 21h3M42 22h3M42 23h3M9 24h3M45 24h3M54 24h6M9 25h3M45 25h3M54 25h6M9 26h3M45 26h3M54 26h6M21 42h3M21 43h3M21 44h3M30 45h3M39 45h3M48 45h3M30 46h3M39 46h3M48 46h3M30 47h3M39 47h3M48 47h3" />
<path stroke="#f5e180" d="M39 27h6M39 28h6M39 29h6M45 30h3M51 30h6M45 31h3M51 31h6M45 32h3M51 32h6M15 33h3M45 33h3M54 33h3M15 34h3M45 34h3M54 34h3M15 35h3M45 35h3M54 35h3M15 36h3M51 36h3M15 37h3M51 37h3M15 38h3M51 38h3M18 39h12M36 39h6M48 39h9M18 40h12M36 40h6M48 40h9M18 41h12M36 41h6M48 41h9M27 42h12M42 42h6M51 42h3M27 43h12M42 43h6M51 43h3M27 44h12M42 44h6M51 44h3" />
</svg>