<svg xmlns="http://www.w3.org/2000/svg" viewBox="0 -0.5 16 16" shape-rendering="crispEdges">
<metadata>Made with Pixels to Svg https://codepen.io/shshaw/pen/XbxvNj</metadata>
<path stroke="#326d62" d="M6 1h1M1 5h1" />
<path stroke="#336e64" d="M7 1h1" />
<path stroke="#306c63" d="M8 1h1M14 5h1" />
<path stroke="#306e65" d="M9 1h1" />
<path stroke="#336f64" d="M10 1h1M11 2h1M12 3h1M12 4h1" />
<path stroke="#326f64" d="M5 2h1M11 10h1M11 14h1" />
<path stroke="#fbeea2" d="M6 2h1" />
<path stroke="#fbefa0" d="M7 2h1" />
<path stroke="#f8ec95" d="M8 2h1" />
<path stroke="#f8e992" d="M9 2h1" />
<path stroke="#faeb94" d="M10 2h1M7 13h1" />
<path stroke="#337063" d="M4 3h1" />
<path stroke="#fdeea1" d="M5 3h1" />
<path stroke="#fcf0a0" d="M6 3h1" />
<path stroke="#fbefa1" d="M7 3h1" />
<path stroke="#fcee9d" d="M8 3h1" />
<path stroke="#f5e589" d="M9 3h1" />
<path stroke="#fbeb97" d="M10 3h1" />
<path stroke="#faee9a" d="M11 3h1" />
<path stroke="#326d61" d="M3 4h1" />
<path stroke="#336e65" d="M4 4h1" />
<path stroke="#2f6c61" d="M5 4h1" />
<path stroke="#fcf1a3" d="M6 4h1" />
<path stroke="#6ab5a9" d="M7 4h1" />
<path stroke="#69b2a4" d="M8 4h1" />
<path stroke="#6db2a7" d="M9 4h1" />
<path stroke="#f9e891" d="M10 4h1" />
<path stroke="#69b1a6" d="M11 4h1" />
<path stroke="#316c61" d="M13 4h1M5 8h1" />
<path stroke="#316f63" d="M0 5h1" />
<path stroke="#316e64" d="M2 5h1M6 5h1" />
<path stroke="#f1c445" d="M3 5h1" />
<path stroke="#f2c446" d="M4 5h1" />
<path stroke="#346f64" d="M5 5h1" />
<path stroke="#6cb7a8" d="M7 5h1" />
<path stroke="#6ab3a8" d="M8 5h1" />
<path stroke="#6bb4a7" d="M9 5h1" />
<path stroke="#6ab3a6" d="M10 5h1" />
<path stroke="#6ab2a7" d="M11 5h1" />
<path stroke="#316d63" d="M12 5h1M13 8h1" />
<path stroke="#f1c345" d="M13 5h1" />
<path stroke="#faef9b" d="M0 6h1" />
<path stroke="#fcef9d" d="M1 6h1" />
<path stroke="#316c62" d="M2 6h1" />
<path stroke="#316e62" d="M3 6h1M14 7h1" />
<path stroke="#eec043" d="M4 6h1" />
<path stroke="#326e63" d="M5 6h1M6 9h1M8 10h1" />
<path stroke="#306d62" d="M6 6h1" />
<path stroke="#6ab3a7" d="M7 6h1M10 6h1" />
<path stroke="#295857" d="M8 6h1" />
<path stroke="#6db4a8" d="M9 6h1" />
<path stroke="#2a5a58" d="M11 6h1" />
<path stroke="#316e65" d="M12 6h1" />
<path stroke="#eabb41" d="M13 6h1" />
<path stroke="#337064" d="M14 6h1" />
<path stroke="#faea93" d="M0 7h1" />
<path stroke="#fbed98" d="M1 7h1" />
<path stroke="#2f6b62" d="M2 7h1" />
<path stroke="#e4b43d" d="M3 7h1" />
<path stroke="#e3b33b" d="M4 7h1" />
<path stroke="#2f6b61" d="M5 7h1" />
<path stroke="#2e6a62" d="M6 7h1" />
<path stroke="#68afa6" d="M7 7h1" />
<path stroke="#2a5c59" d="M8 7h1" />
<path stroke="#6bb2a6" d="M9 7h1" />
<path stroke="#6bb3a5" d="M10 7h1" />
<path stroke="#2d5f59" d="M11 7h1" />
<path stroke="#316c63" d="M12 7h1" />
<path stroke="#e5b13c" d="M13 7h1" />
<path stroke="#faed99" d="M0 8h1" />
<path stroke="#fced98" d="M1 8h1" />
<path stroke="#f9ee9a" d="M2 8h1" />
<path stroke="#306e63" d="M3 8h1" />
<path stroke="#306c61" d="M4 8h1" />
<path stroke="#5ca59b" d="M6 8h1" />
<path stroke="#66b1a5" d="M7 8h1" />
<path stroke="#6db5a9" d="M8 8h1" />
<path stroke="#6bb1a5" d="M9 8h1" />
<path stroke="#61ab9e" d="M10 8h1" />
<path stroke="#68aea1" d="M11 8h1" />
<path stroke="#2f6d62" d="M12 8h1" />
<path stroke="#f9eb92" d="M0 9h1" />
<path stroke="#faec97" d="M1 9h1M4 11h1" />
<path stroke="#fcee98" d="M2 9h1" />
<path stroke="#fbec97" d="M3 9h1M6 12h1" />
<path stroke="#f8e88d" d="M4 9h1M4 12h1" />
<path stroke="#f8e68c" d="M5 9h1" />
<path stroke="#60a9a0" d="M7 9h1" />
<path stroke="#67afa3" d="M8 9h1" />
<path stroke="#65ada2" d="M9 9h1" />
<path stroke="#62a9a0" d="M10 9h1" />
<path stroke="#61a99f" d="M11 9h1" />
<path stroke="#316e63" d="M12 9h1" />
<path stroke="#f9ea93" d="M0 10h1" />
<path stroke="#faec99" d="M1 10h1" />
<path stroke="#fceb94" d="M2 10h1" />
<path stroke="#f9ea92" d="M3 10h1" />
<path stroke="#fbeb98" d="M4 10h1" />
<path stroke="#f6e283" d="M5 10h1M7 12h1" />
<path stroke="#f6e081" d="M6 10h1" />
<path stroke="#336e60" d="M7 10h1" />
<path stroke="#306d63" d="M9 10h1" />
<path stroke="#327065" d="M10 10h1" />
<path stroke="#327063" d="M12 10h1" />
<path stroke="#f9eb95" d="M0 11h1" />
<path stroke="#fae991" d="M1 11h1" />
<path stroke="#fbef9a" d="M2 11h1" />
<path stroke="#f8ea96" d="M3 11h1" />
<path stroke="#f8ec99" d="M5 11h1" />
<path stroke="#f7e585" d="M6 11h1" />
<path stroke="#f5e082" d="M7 11h1" />
<path stroke="#f8e386" d="M8 11h1" />
<path stroke="#f4de7d" d="M9 11h1" />
<path stroke="#f4e07e" d="M10 11h1" />
<path stroke="#f6e184" d="M11 11h1" />
<path stroke="#2f6b60" d="M12 11h1M0 15h1" />
<path stroke="#fae990" d="M0 12h1" />
<path stroke="#faec93" d="M1 12h1" />
<path stroke="#faeb90" d="M2 12h1" />
<path stroke="#fbee9c" d="M3 12h1" />
<path stroke="#fbea95" d="M5 12h1" />
<path stroke="#f8eb93" d="M8 12h1" />
<path stroke="#f9e88f" d="M9 12h1M6 14h1" />
<path stroke="#f6e381" d="M10 12h1M9 13h1" />
<path stroke="#fae893" d="M11 12h1" />
<path stroke="#357266" d="M12 12h1" />
<path stroke="#f8e991" d="M0 13h1" />
<path stroke="#faec95" d="M1 13h1" />
<path stroke="#f7e88f" d="M2 13h1" />
<path stroke="#f9ed96" d="M3 13h1" />
<path stroke="#f9e78b" d="M4 13h1" />
<path stroke="#f9e890" d="M5 13h1" />
<path stroke="#faeb95" d="M6 13h1" />
<path stroke="#faea92" d="M8 13h1" />
<path stroke="#faed97" d="M10 13h1" />
<path stroke="#357164" d="M11 13h1" />
<path stroke="#f5e181" d="M0 14h1M2 15h1" />
<path stroke="#f6e180" d="M1 14h1" />
<path stroke="#f7e587" d="M2 14h1" />
<path stroke="#f8eb91" d="M3 14h1" />
<path stroke="#f4e07d" d="M4 14h1" />
<path stroke="#f4df7f" d="M5 14h1" />
<path stroke="#faea8e" d="M7 14h1" />
<path stroke="#f4df7d" d="M8 14h1" />
<path stroke="#f6e280" d="M9 14h1" />
<path stroke="#f8e484" d="M10 14h1" />
<path stroke="#f5de7e" d="M1 15h1" />
<path stroke="#f8e382" d="M3 15h1" />
<path stroke="#f4e17e" d="M4 15h1" />
<path stroke="#326b63" d="M5 15h1" />
<path stroke="#f6e385" d="M6 15h1" />
<path stroke="#f7e484" d="M7 15h1" />
<path stroke="#f9e586" d="M8 15h1" />
<path stroke="#f5e381" d="M9 15h1" />
<path stroke="#316b62" d="M10 15h1" />
</svg>