<svg xmlns="http://www.w3.org/2000/svg" viewBox="0 -0.5 16 16" shape-rendering="crispEdges">
<metadata>Made with Pixels to Svg https://codepen.io/shshaw/pen/XbxvNj</metadata>
<path stroke="#326e63" d="M5 2h5M4 3h1M10 3h1M3 4h1M11 4h1M2 5h3M11 5h2M0 6h2M4 6h2M11 6h1M13 6h1M1 7h2M4 7h2M11 7h1M13 7h1M1 8h1M4 8h2M11 8h1M13 8h1M2 9h3M11 9h2M5 10h1M11 10h1M6 11h6M11 12h1M11 13h1M10 14h1M10 15h1" />
<path stroke="#faec97" d="M5 3h5M4 4h4M9 4h2M5 5h1M9 5h1M0 7h1M0 8h1M0 9h2M0 10h3M0 11h4M0 12h5M0 13h1M2 13h1M4 13h2M7 13h1M10 13h1M0 14h1M2 14h1M4 14h4M9 14h1" />
<path stroke="#f8e78b" d="M8 4h1M3 10h2M5 12h1M7 12h1M10 12h1M1 13h1M3 13h1M8 13h1M1 14h1M3 14h1M1 15h2M5 15h2" />
<path stroke="#69b1a5" d="M6 5h3M10 5h1M6 6h5M6 7h1M8 7h2M6 8h1M8 8h2M6 9h5M7 10h2" />
<path stroke="#edbe42" d="M2 6h2M12 6h1M3 7h1M12 7h1M2 8h2M12 8h1" />
<path stroke="#2c5e5a" d="M7 7h1M10 7h1M7 8h1M10 8h1" />
<path stroke="#5fa69d" d="M5 9h1M6 10h1M9 10h2" />
<path stroke="#f5e180" d="M4 11h2M6 12h1M8 12h2M6 13h1M9 13h1M8 14h1M0 15h1M3 15h2M7 15h3" />
</svg>