<svg xmlns="http://www.w3.org/2000/svg" viewBox="0 -0.5 11 7" shape-rendering="crispEdges">
<metadata>Made with Pixels to Svg https://codepen.io/shshaw/pen/XbxvNj</metadata>
<path stroke="#fcf3bd" d="M4 0h3M3 1h5M3 2h1M7 2h1" />
<path stroke="#e6ac00" d="M1 2h1M9 2h1M1 3h1M9 3h1M1 4h1M9 4h1" />
<path stroke="#101010" d="M2 2h1M8 2h1M0 3h1M2 3h1M8 3h1M10 3h1M2 4h1M4 4h1M6 4h1M8 4h1" />
<path stroke="#4ab4e6" d="M4 2h3M3 3h1M5 3h1M7 3h1M3 4h1M5 4h1M7 4h1M3 5h5M4 6h3" />
<path stroke="#ffffff" d="M4 3h1M6 3h1" />
</svg>